<svg width="24" height="24" viewBox="0 0 24 24" xmlns="http://www.w3.org/2000/svg">
    <g fill="none" fill-rule="evenodd">
        <g transform="translate(0 4)">
            <rect fill="#6F6F71" width="24" height="16" rx="3"/>
            <path fill-opacity=".24" fill="#FFF" d="M0 3h24v3H0zM4.5 10h3a1.5 1.5 0 0 1 0 3h-3a1.5 1.5 0 0 1 0-3z"/>
        </g>
        <path d="M12.79 13.002c.426 0 .847.105 1.223.307a.571.571 0 1 1-.54 1.007 1.445 1.445 0 0 0-.684-.172.857.857 0 1 0 0 1.714c.239 0 .474-.06.684-.172a.571.571 0 1 1 .54 1.006A2.587 2.587 0 0 1 12.79 17a2 2 0 1 1 0-3.998zm9.394.06c.26.13.38.432.282.705l-.027.061-1.428 2.856a.571.571 0 0 1-.985.063l-.036-.063-1.428-2.856a.569.569 0 0 1-.06-.247.564.564 0 0 1-.035.186l-.026.061-1.428 2.856a.571.571 0 0 1-.986.063l-.036-.063-1.428-2.856a.571.571 0 0 1 .989-.569l.033.058.917 1.834.917-1.834a.571.571 0 0 1 1.082.255.57.57 0 0 1 1.049-.313l.033.058.918 1.834.917-1.834a.571.571 0 0 1 .766-.255z" fill="#FFF" fill-rule="nonzero"/>
    </g>
</svg>
