<svg width="24" height="24" viewBox="0 0 24 24" xmlns="http://www.w3.org/2000/svg">
    <g fill-rule="nonzero" fill="none">
        <path d="M38.557 1.933c-2.043-.165-4.094-.036-6.142-.065-.08 0-.165-.002-.185.055v16.56h2.032v-6.73c.225 0 .386.004.546 0 1.26-.032 2.52.054 3.78-.054 2.137-.182 4.543-2.157 4.45-5.067-.084-2.564-2.326-4.524-4.48-4.699zm-.077 7.784a3.777 3.777 0 0 1-.654.057h-3.544V3.941c.111-.117.246-.088.369-.086 1.144.01 2.289.013 3.433.04 1.412.032 2.712 1.258 2.808 2.626.111 1.58-.914 2.932-2.412 3.195zm12.662-2.132c-1.135-.721-2.403-.863-3.702-.783-1.018.064-1.977.353-2.814.969-.447.33-.838.712-1.15 1.203l1.803 1.127c1.326-1.76 3.296-1.708 4.376-1.112 1.087.599 1.669 1.716 1.435 2.801-.037.002-.05.006-.059.003-.043-.015-.086-.029-.129-.047-1.719-.748-3.486-.813-5.244-.222-2.659.895-3.108 3.506-2.148 5.26 1.3 2.375 5.348 2.996 7.214.485.09-.122.153-.284.385-.337v1.535h1.963c.012-.078.023-.123.023-.169-.003-2.454.039-4.91-.028-7.362-.04-1.416-.698-2.572-1.925-3.351zm-2.664 9.343c-.894.221-1.743.145-2.506-.42-.917-.68-1.027-1.9-.244-2.732.443-.471 1.001-.733 1.628-.857a5.238 5.238 0 0 1 3.055.293c.246.1.477.23.684.428.074 1.422-1.124 2.92-2.617 3.288zM62.6 7.2l-3.305 8.163-.11-.016-3.378-8.154h-2.255c1.577 3.581 3.13 7.11 4.687 10.64l-2.64 5.718h2.136l7.137-16.406c-.81.012-1.534-.02-2.272.055z" fill="#FFF"/>
        <path d="M10.72 10.038c0-.622.09-1.223.26-1.788L7.773 5.718a9.498 9.498 0 0 0-1.013 4.285c0 1.54.363 3.012 1.007 4.32l3.21-2.521a6.12 6.12 0 0 1-.256-1.764z" fill="#FFB900"/>
        <path d="M16.487 4.27a5.26 5.26 0 0 1 3.54 1.446l2.645-2.758c-1.6-1.56-3.777-2.508-6.29-2.508a9.61 9.61 0 0 0-8.61 5.268L10.98 8.25c.702-2.33 2.767-4.042 5.507-3.98z" fill="#FE2727"/>
        <path d="M16.487 15.804c-2.747 0-4.814-1.68-5.51-4.002l-3.21 2.522c1.577 3.207 4.843 5.437 8.616 5.302 2.655-.095 4.794-.919 6.333-2.333l-3.105-2.355c-.852.583-1.917.866-3.124.866z" fill="#00AC47"/>
        <path d="M16.279 8.3v3.683h5.25c-.334 1.35-1.003 2.327-1.918 2.954l3.105 2.355c1.822-1.676 2.804-4.181 2.804-7.29 0-.58-.046-1.15-.134-1.702" fill="#2485FC"/>
    </g>
</svg>
