<svg width="24" height="24" viewBox="0 0 24 24" xmlns="http://www.w3.org/2000/svg" xmlns:xlink="http://www.w3.org/1999/xlink">
    <defs>
        <path d="M4 0h16a4 4 0 0 1 4 4v10a4 4 0 0 1-4 4H4a4 4 0 0 1-4-4V4A4 4 0 0 1 3.8.005L4 0z" id="8yvilv4l4a"/>
    </defs>
    <g transform="translate(0 3)" fill="none" fill-rule="evenodd">
        <mask id="gjev5abkxb" fill="#fff">
            <use xlink:href="#8yvilv4l4a"/>
        </mask>
        <use fill="#FFF" xlink:href="#8yvilv4l4a"/>
        <path d="M24 18.488v-5.657c-1.655 1.034-11.24 5.936-20.65 7.703h18.443C22.914 20.52 24 19.61 24 18.488z" fill="#FF6F00" fill-rule="nonzero" mask="url(#gjev5abkxb)"/>
        <g mask="url(#gjev5abkxb)" fill-rule="nonzero">
            <path d="M21.813 9.253c.516-.107.797-.452.797-.99 0-1.214-1.291-1.04-2.255-1.04v3.497h.682V9.32h.094l.947 1.399h.835l-1.1-1.467zm-.575-.41h-.2v-1.06h.208c.43 0 .665.178.665.515 0 .358-.234.546-.673.546zM17.972 7.228h1.931v.597h-1.25V8.6h1.207v.588h-1.206v.947h1.25v.588h-1.932zM15.043 7.228l.933 2.353.947-2.353h.746l-1.514 3.59h-.366l-1.493-3.59z" fill="#000"/>
            <path d="M12.66 7.1a1.9 1.9 0 1 1 0 3.803 1.9 1.9 0 1 1 0-3.803z" fill="#FF6F00"/>
            <path d="M10.557 7.36v.81c-.857-.857-1.995-.2-1.995.81 0 1.066 1.172 1.642 1.995.819v.81c-1.266.61-2.698-.243-2.698-1.629 0-1.33 1.41-2.26 2.698-1.62zM6.413 10.187c.486 0 .955-.653-.14-1.04-.64-.235-.862-.487-.862-.968 0-.99 1.305-1.34 2.12-.61l-.359.46c-.443-.494-1.062-.264-1.062.107 0 .188.116.294.525.44.776.28 1.006.532 1.006 1.09 0 1.258-1.654 1.595-2.413.482l.44-.422c.157.303.421.46.745.46z" fill="#000"/>
            <path fill="#000" d="M4.281 7.228h1v3.496h-1zM2.086 7.228h-.998v3.496h.998c1.317 0 1.88-.955 1.88-1.744 0-1.027-.768-1.752-1.88-1.752zm.797 2.635c-.209.187-.495.273-.934.273H1.77V7.825h.18c.438 0 .711.072.933.281.243.213.38.537.38.874 0 .337-.137.661-.38.883z"/>
        </g>
    </g>
</svg>