<svg width="25" height="24" viewBox="0 0 25 24" xmlns="http://www.w3.org/2000/svg">
    <g fill="none" fill-rule="evenodd">
        <path d="M4.7 3h16a4 4 0 0 1 4 4v10a4 4 0 0 1-4 4h-16a4 4 0 0 1-4-4V7a4 4 0 0 1 3.8-3.995L4.7 3z" fill-opacity=".8" fill="#FFF"/>
        <path d="m15.397 9.2.11.002c.502.016.91.143 1.169.24l-.207 1.175-.139-.069-.144-.051a2.849 2.849 0 0 0-.927-.156c-.553 0-.795.242-.795.484 0 .276.31.45.795.691.799.366 1.18.829 1.177 1.356l-.002.061c0 1.141-.968 1.867-2.454 1.867-.657 0-1.245-.138-1.59-.277l.207-1.21.173.104c.484.208.795.277 1.348.277.415 0 .864-.138.864-.519 0-.242-.173-.415-.726-.691l-.116-.053c-.529-.253-1.128-.693-1.128-1.433 0-1.038 1.002-1.798 2.385-1.798zm4.909.104 1.14 5.496h-1.313l-.129-.599a7.28 7.28 0 0 1-.044-.23h-1.798c-.062.124-.264.696-.304.81l-.007.019h-1.486l2.109-5.047c.138-.346.38-.45.725-.45h1.107zm-7.882 0-.899 5.461h-1.417l.899-5.461h1.417zm-6.153 0c.311 0 .588.103.657.45l.484 2.523.138.76 1.383-3.733h1.452l-2.213 5.461H6.686l-1.14-4.286c-.105-.311-.312-.588-.623-.726a5.853 5.853 0 0 0-.933-.346c-.035 0-.035-.034-.035-.069.035 0 .035-.034.07-.034H6.27zm13.397 3.346-.4-1.86-.178.535c-.055.146-.45 1.215-.547 1.505v.034h1.175l-.05-.214z" fill="#1A1F71" fill-rule="nonzero"/>
    </g>
</svg>
